<svg width="800" height="800" viewBox="0 0 800 800" fill="none" xmlns="http://www.w3.org/2000/svg">
<path d="M461.402 339.878C454.374 343.68 451.756 352.458 455.556 359.489C459.359 366.517 468.134 369.135 475.166 365.332C512.581 345.1 559.477 359.082 579.708 396.495C582.326 401.337 587.306 404.084 592.448 404.084C594.77 404.084 597.129 403.523 599.317 402.34C606.347 398.538 608.963 389.761 605.162 382.733C577.343 331.284 512.853 312.06 461.402 339.878Z" fill="#81AAD6"/>
<path d="M338.598 339.878C287.147 312.056 222.655 331.288 194.838 382.733C191.037 389.761 193.655 398.538 200.683 402.34C202.87 403.523 205.228 404.084 207.552 404.084C212.695 404.084 217.674 401.337 220.292 396.495C240.521 359.08 287.423 345.098 324.834 365.332C331.868 369.135 340.641 366.511 344.444 359.489C348.244 352.458 345.628 343.68 338.598 339.878Z" fill="#81AAD6"/>
<path d="M799.419 513.651C797.513 507.106 791.288 502.737 784.496 503.267C783.319 503.35 782.148 503.391 780.975 503.391C736.309 503.391 693.286 443.615 680.245 420.059L648.816 361.933C629.205 325.66 596.641 299.199 557.128 287.418C537.831 281.669 518.003 279.78 498.541 281.611C492.304 270.488 482.917 261.793 471.547 256.481C490.84 243.799 510.746 226.94 524.146 205.714C549.05 166.247 558.572 127.823 549.617 102.93C545.346 91.0578 537.136 82.8282 525.876 79.1321C521.709 77.7643 517.195 77.0718 512.465 77.0718C480.01 77.0718 435.997 110.895 405.434 159.327C403.582 162.261 401.927 165.213 400.394 168.17C398.775 165.099 397.021 162.032 395.061 158.984C364.146 110.895 319.929 77.3129 287.533 77.3129C282.707 77.3129 278.113 78.0286 273.881 79.4446C262.794 83.1562 254.733 91.2642 250.571 102.895C241.806 127.389 251.575 165.903 276.705 205.921C291.555 229.571 308.738 246.281 325.234 258.12C315.305 263.508 307.085 271.576 301.446 281.642C296.677 281.19 291.889 280.959 287.095 280.959C230.27 280.959 178.193 311.987 151.188 361.933L119.817 419.953C107.017 443.158 63.9846 503.394 19.1483 503.398C17.9368 503.398 16.7118 503.354 15.5061 503.267C8.67132 502.737 2.48853 507.106 0.582577 513.651C-1.32531 520.197 1.59343 527.186 7.59102 530.425L120.06 591.236C109.635 624.841 123.665 663.051 154.766 679.869C165.147 685.479 176.936 688.444 188.863 688.444H188.867C211.638 688.444 233.53 677.747 247.915 660.366L360.401 721.185C362.573 722.359 364.937 722.925 367.277 722.925C371.397 722.925 375.448 721.169 378.274 717.865C382.707 712.683 382.922 705.115 378.793 699.692C350.904 663.074 378.435 591.335 391.336 566.897L400.002 550.868L408.613 566.791C421.606 591.3 449.194 662.953 421.212 699.689C417.082 705.115 417.298 712.683 421.731 717.865C424.557 721.169 428.609 722.929 432.729 722.925C435.071 722.925 437.432 722.359 439.605 721.185L552.093 660.366C566.476 677.747 588.369 688.444 611.143 688.444C623.068 688.444 634.859 685.479 645.239 679.869C676.34 663.049 690.371 624.841 679.946 591.236L792.415 530.425C798.408 527.186 801.329 520.197 799.419 513.651ZM415.726 302.181C417.725 294.017 423.522 287.487 430.916 283.49C438.31 279.493 446.816 278.611 454.87 281.015C459.494 282.394 463.63 284.786 467.088 287.952C457.676 290.905 448.476 294.771 439.608 299.567C430.727 304.371 422.478 309.963 414.846 316.25C414.673 315.199 413.836 309.897 415.726 302.181ZM429.903 174.769C457.065 131.725 493.211 106.006 512.463 106.006C514.122 106.006 515.598 106.213 516.846 106.624C518.723 107.237 520.847 108.443 522.386 112.724C526.972 125.469 521.817 155.172 499.671 190.268C479.581 222.098 439.373 243.175 417.873 252.674C414.3 234.884 411.893 203.307 429.903 174.769ZM385.154 316.254C377.586 310.019 369.333 304.403 360.392 299.567C351.597 294.812 342.368 290.946 332.873 287.985C336.34 284.806 340.487 282.398 345.13 281.015C353.186 278.615 361.694 279.493 369.086 283.49C376.478 287.487 381.67 294.187 384.274 302.181C385.497 305.933 385.404 315.567 385.154 316.254ZM301.209 190.534C278.771 154.805 273.354 125.11 277.814 112.646C279.248 108.638 281.271 107.484 283.06 106.886C284.327 106.464 285.83 106.249 287.531 106.249C306.811 106.249 343.199 131.829 370.72 174.63C389.851 204.385 386.689 237.564 383.057 254.839C364.636 249.482 328.442 233.9 301.209 190.534ZM188.861 659.509C181.621 659.509 174.779 657.794 168.527 654.414C151.234 645.062 142.692 624.675 146.265 605.407L221.701 646.198C212.942 654.54 201.1 659.509 188.861 659.509ZM339.202 676.834L56.3086 523.874C71.3036 517.103 84.9327 506.923 96.7813 495.819L340.51 627.604C337.709 643.594 336.654 660.572 339.202 676.834ZM397.307 495.012L365.822 553.244C364.884 555.015 355.293 573.417 347.578 598.53L117.243 473.985C134.071 453.733 144.243 435.581 145.211 433.825L176.64 375.699C198.584 335.113 240.907 309.899 287.093 309.899C307.744 309.899 328.332 315.129 346.629 325.024C407.468 357.919 430.202 434.174 397.307 495.012ZM434.122 553.138L416.449 520.453L422.762 508.777C450.053 458.3 446.21 399.202 417.873 353.642C427.812 342.044 439.697 332.418 453.371 325.022C482.842 309.087 516.757 305.584 548.859 315.15C580.967 324.725 607.425 346.223 623.359 375.699L654.846 433.927C655.813 435.683 665.956 453.787 682.743 473.995L452.416 598.532C444.692 573.39 435.083 554.954 434.122 553.138ZM631.473 654.416C625.219 657.796 618.379 659.511 611.141 659.511C598.9 659.511 587.06 654.542 578.299 646.2L653.735 605.409C657.308 624.677 648.768 645.064 631.473 654.416ZM460.796 676.834C463.342 660.576 462.289 643.598 459.484 627.604L703.203 495.827C715.052 506.927 728.681 517.107 743.686 523.878L460.796 676.834Z" fill="#81AAD6"/>
</svg>
